<svg version="1" xmlns="http://www.w3.org/2000/svg" width="3584" height="3584" viewBox="0 0 2688.000000 2688.000000"><path d="M86.3 1105.4c-13.6 3.1-29.5 14.7-38.6 28-18.6 27.4-22.8 67.4-10.6 101.1 9.4 25.9 28.5 44.4 50.9 49.1 24.3 5.1 52.2-8.2 62.3-29.9 2.5-5.3 4.7-13.8 4.7-18.2 0-3.3-3.3-6.5-6.8-6.5-4.7 0-6.4 2.1-7.4 9.1-1 7.7-5.3 17.2-10.2 22.6-7.4 8.2-22.9 14-34.5 12.9-12.9-1.2-28-11.2-37.2-24.8-20.3-29.8-20.7-77-1-107 15.4-23.5 37.6-32.3 57.5-23 12 5.6 20.6 17.1 24.6 32.8 1.1 4.2 2.5 8.3 3.1 9 .6.8 2.9 1.4 5 1.4 6.7 0 6.9-1 6.9-28.5 0-25.7-.5-28.7-4.8-29.3-3.2-.5-4.9 1.2-8.8 8.9l-3.3 6.7-8.1-5.3c-4.5-3.1-11-6.4-14.8-7.5-8.6-2.8-20.8-3.4-28.9-1.6zM2548.3 1108c-3.1 1.3-4 5.5-1.8 8 1.7 1.8 3.5 2 25.4 2.2l23.6.3v152l-24.3.5c-20.1.4-24.4.8-25.2 2-1.4 2.1-1.2 4.3.4 6.6 1.4 1.8 3.1 1.9 56.1 1.9s54.7-.1 56.1-1.9c1.6-2.3 1.8-4.5.4-6.6-.8-1.2-5.1-1.6-25.2-2l-24.3-.5-.2-80-.3-80-2.1-1.8c-1.9-1.5-4.8-1.7-29.3-1.6-14.9 0-28.1.4-29.3.9zM1758.4 1112.4c-4 4-4.6 9.2-1.5 14.2 5.8 9.6 20.1 4.6 20.1-7 0-3-.7-4.5-3.4-7.2-2.8-2.8-4.2-3.4-7.6-3.4-3.4 0-4.8.6-7.6 3.4zM1112.2 1124.8c-2.3 1.5-3.2 7.6-3.2 21.9v14.3h-35l-1.6 2.5c-2.3 3.5-.7 7 3.6 7.9 1.8.3 9.9.6 18 .6h14.8l.4 42.2c.4 40.8.4 42.5 2.6 47.8 5.6 14.1 17.3 21 35.7 21 24.1 0 41-13 42.3-32.7.3-5 .1-7.8-.8-8.8-1.5-1.8-9.3-2-10.7-.3-.6.7-1.3 4.1-1.6 7.6-1.6 15.9-12.3 23.9-30.6 23-10.7-.5-16-3.1-19.9-9.8l-2.7-4.5-.3-42.7-.3-42.7 28.4-.3c30.7-.3 31.7-.5 31.7-5.7 0-5-.4-5.1-31.1-5.1h-28.8l-.3-17.1c-.3-15.5-.5-17.2-2.2-18.5-2.2-1.5-6.4-1.8-8.4-.6zM1530.1 1125.7c-1.9 1.7-2.1 2.9-2.3 18.3l-.3 16.5-17.4.3c-10.8.1-18 .7-18.8 1.3-1.8 1.6-1.6 6.4.4 8 1.2 1 6.1 1.5 18.9 1.7l17.3.4.3 43.2.3 43.1 3.3 6.8c6.3 12.7 18.2 18.4 36.5 17.5 15.8-.8 27.6-6.3 34.4-16.2 3.9-5.6 5.4-10.6 5.4-18.1.1-6.7-1.2-8.5-6.2-8.5-4.9 0-6.9 2.1-6.9 7.3 0 6.5-1.8 11.5-5.7 15.8-5.6 6.2-10.4 8.2-20.4 8.7-10.6.5-17.1-1.3-21.8-6.2-5.8-6-6.1-8.6-6.1-53.3V1172h26.4c14.5 0 27.8-.3 29.6-.6 4.3-.9 5.9-4.4 3.6-7.8l-1.6-2.6-28.8-.2-28.7-.3-.5-16.8c-.5-15.2-.7-17-2.4-18.3-2.7-1.9-5.9-1.8-8.5.3zM291.5 1159c-21 4.5-37.7 20.6-44.7 43-1.9 6.2-2.3 9.6-2.2 19.5 0 10.5.4 13.1 2.9 20.5 6.9 20.3 23.4 35.8 42.6 40 7.8 1.7 21.9.8 29.4-1.9 22.4-8 37.9-30 39.2-55.6.6-12.7-1.3-22.2-6.7-33.3-9.7-19.6-27.6-31.8-48-32.7-4.7-.2-10.3 0-12.5.5zm21.6 11.9c28.7 9 41 45.4 25.6 76.1-4.2 8.4-13.4 17.8-21.2 21.6-5.4 2.6-7 2.9-16 2.9s-10.6-.3-16-2.9c-11.8-5.8-22-19.3-25.9-34.3-.9-3.4-1.6-10-1.6-14.8 0-15.3 4.3-26.7 13.7-36.6 11.6-12.2 26.6-16.5 41.4-12zM1315.8 1159c-12.1 1.9-20 7.3-21.4 14.5-1.3 7 3 12.5 9.9 12.5 4.4 0 8.3-3.2 9.2-7.7 1.6-7.6 4.5-8.8 20.5-8.8 10.6 0 13.6.4 19.4 2.4 12.5 4.3 20.8 15.1 21.7 28.5.4 4.6.2 5.1-2.1 5.7-1.4.4-5.3.7-8.8.8-28 .4-56.3 8.6-68 19.5-13.2 12.3-12.6 31.8 1.4 44.5 10.2 9.3 20.8 12.6 38.4 11.9 13.5-.6 22-2.6 32.6-7.8l7.7-3.8 3.4 3.4c4.6 4.7 12.2 6.7 25.6 6.8 9.7.1 11-.1 12.3-1.8.8-1.1 1.4-2.8 1.4-3.7 0-3.4-2.6-4.6-11.8-5.3-4.9-.3-10.9-1.2-13.3-1.9l-4.4-1.3-.5-37.9c-.6-41.6-.6-41.7-6.9-50.9-5.9-8.6-15.2-14.7-27.6-18.1-7.1-1.9-30.2-2.8-38.7-1.5zm59.7 76.5c0 20.5-.5 22.2-8.4 28.2-7.2 5.5-16.5 7.8-31.6 7.8-12.2 0-13.4-.2-19.3-2.9-9.8-4.5-16.2-13-16.2-21.5 0-4.5 4-10.9 9.1-14.7 11.5-8.4 39.6-15.5 59.4-15.1l7 .2v18zM1964.5 1159.1c-17.4 3.9-32.4 16.1-40.1 32.4-4.8 10.1-6.7 18.5-6.7 29.5 0 17.5 5.7 32.2 17.4 44.5 11.1 11.6 24.3 17.5 39.4 17.5 15.6 0 27.6-5.1 39-16.5 11.8-11.8 17.4-24.6 18.2-42 1-20.9-4.3-35.2-18.1-49.1-8.9-9-16.5-13.5-26.8-15.9-6.9-1.6-16.1-1.8-22.3-.4zm27.1 13.8c21.3 10 32.3 37.9 24.8 63.2-4.3 14.3-13.9 26.6-25.2 32.1-6.2 3.1-7.4 3.3-16.7 3.3-9.1 0-10.5-.3-15.9-3-24.4-12.3-34.8-47.7-21.8-74.3 5.4-11 17.7-21.3 28.8-24.2 7.3-1.8 18.7-.5 26 2.9zM2363.5 1158.6c-15.3 2.4-23.5 8.6-23.5 17.9 0 4.9 4.4 9.5 9.2 9.5 5.4 0 8.1-2 9.8-7.1.8-2.6 2.1-5.3 2.8-6.2 1.8-2.1 9.7-3.7 18.1-3.7 24.1 0 39.3 11.3 40.8 30.3l.5 6.4-3.2.7c-1.8.3-6.1.6-9.6.6-16.2 0-41.4 5.2-53.8 11-8.8 4.2-17.9 12.6-20.3 18.8-7.4 19.3 7.3 40.6 31.4 45.2 8.1 1.6 25.7.8 34.6-1.5 3.7-1 10-3.4 14.1-5.4l7.3-3.7 3.8 3.3c4.8 4.1 10.8 6.1 21.5 6.9 13.6 1 19.4-1.5 17.5-7.6-.7-2.3-2.1-2.7-12.6-3.5-4.2-.3-9.6-1.1-12-1.8l-4.4-1.3-.5-37.9-.5-38-3.2-6.7c-5.6-11.9-16.2-20.2-30.9-24.3-5.8-1.6-30.4-2.9-36.9-1.9zm57.5 76.6c0 15.4-.3 18.8-1.8 21.8-2.4 4.9-8.7 9.3-17.3 12.1-6.4 2.1-9.3 2.4-20.9 2.4-15.4 0-19.4-1.2-27.1-8.2-10.1-9.1-10.5-21.5-1-29.4 10.8-9 38-16.4 61.4-16.8l6.7-.1v18.2zM481.5 1160.5c-2.2.8-7.3 4-11.2 7l-7.2 5.5-.7-3.8c-1.3-7.6-2.3-8.2-13-8.2-11 0-13.4.9-13.4 4.9 0 3.9 1.4 4.8 9.3 5.6l6.7.7v98.8h-6.1c-7.5 0-9.9 1.2-9.9 4.9 0 5.1 1.7 5.6 20.4 5.9 19.2.3 21.9-.3 22.4-5.3.5-4.1-1.9-5.5-9.5-5.5H463v-33.3c0-36 .7-42.2 5.4-51.5 5.2-10.3 13-16.2 21.3-16.2 5.8 0 9.8 3.6 12 10.8 1.6 5.1 1.8 10.5 1.8 47.7v42l-4.6.3c-5.9.4-8.7 3-7.3 6.9.6 1.9 1.9 2.9 4.4 3.6 4.5 1.1 31.6.5 32.8-.8 1.9-1.9 2.2-5.1.8-7.1-1.1-1.4-3-2-8.3-2.4l-6.8-.5-.3-30.5c-.3-33.7.6-42.5 5.3-52.7 4.8-10.5 13.4-17.2 22.2-17.3 5.6 0 9.6 3.4 12 10.3 1.6 4.7 1.8 9.2 1.8 47.7v42.5l-4.6.3c-6 .4-8.7 3-7.3 6.9 1.2 3.6 3.4 4.1 19 4.2 14.2.1 18.9-.9 19.7-4.1 1.3-4.8-1.5-6.6-10.8-7l-5-.3-.5-44.5c-.5-42.8-.6-44.7-2.7-50.4-4.3-11.3-10.8-16.5-20.5-16.6-8.1 0-15.4 3.5-23.3 11.2-3.8 3.8-7.1 6.5-7.2 6.1-1-2.8-7.4-11.1-10.6-13.7-3.2-2.5-4.8-3.1-10-3.3-3.7-.1-7.8.4-10.2 1.2zM720.5 1159.7c-9.7 2.2-19.5 7.1-27.7 14l-4.3 3.6-.7-6.7c-.3-3.7-1.2-7.4-1.8-8.2-1-1.1-4.5-1.4-17.5-1.4-14.4 0-16.4.2-17.8 1.8-2.1 2.3-2.1 4.2-.3 6.7 1.2 1.6 3.1 2 12.7 2.5l11.4.5.3 80.9c.1 58.9-.1 81.2-.9 82.2s-4 1.4-11.5 1.4c-8 0-10.6.3-11.8 1.6-2 1.9-2 4.4-.2 7 1.4 1.8 3.1 1.9 28.8 2.2 17.1.2 28.5-.1 30.1-.7 3.3-1.3 4.3-3.5 3.1-7-.9-2.6-1.1-2.6-12.4-3.1l-11.5-.5-.3-36.3-.2-36.3 7.2 6.1c10.6 8.9 18 12.3 28.2 12.8 16.4.9 29.3-4.3 41.6-16.7 12.4-12.5 18-26.4 18-45.2 0-29.4-17.2-53.8-42.7-60.4-5.4-1.4-15.3-1.8-19.8-.8zm22.7 14.1c29.7 14.6 36.2 60.8 11.9 85.1-8.6 8.6-16.9 12.4-28.1 12.9-7.8.4-9.4.1-14.2-2-10.6-4.9-17.7-13.6-22.4-27.4-2.4-7.4-2.5-8.5-2.2-26.3.3-17.3.5-18.9 2.7-23.1 5.3-10.1 13.3-17 24.1-21 8.4-3.1 19.7-2.4 28.2 1.8zM2182.3 1160.4c-7.4 1.9-15.4 6.2-22.8 12.3-3.5 2.9-6.6 5.3-6.8 5.3-.3 0-.7-3.1-.9-7-.3-3.8-1.1-7.7-1.8-8.5-1-1.2-4.2-1.5-17.6-1.5H2116l-1.6 2.5c-1.3 2-1.4 3.1-.6 4.9 1.3 2.9 4.6 3.6 16.3 3.6h8.9l-.2 49.2-.3 49.3-11.2.3c-10.8.3-11.4.4-12.9 2.8-2.3 3.4-.7 6.9 3.6 7.8 1.8.3 14.6.6 28.4.6 27.7 0 29.9-.4 30.4-5.5.6-4.6-1.7-5.5-14-5.5H2152v-32.3c0-34.1.4-37.7 5-46.7 7.1-14 22.3-22.8 37.8-21.8 11.6.7 17.8 5.5 20.1 15.8.6 2.7 1.1 21 1.1 44.7v40.3h-10.5c-9.9 0-10.5.1-12 2.4-2.3 3.4-.6 7.1 3.5 8 4.2.8 48.8.8 53 0 4.3-.9 5.9-4.4 3.6-7.8-1.5-2.4-2.1-2.5-12.9-2.8l-11.2-.3-.5-43.5-.5-43.5-2.8-6.1c-5.6-12.2-14.2-17.5-29.2-18-5.3-.2-11.1.2-14.2 1zM859.4 1163.5c-1.3 2-1.4 3.1-.6 4.9 1.3 2.9 4.6 3.6 16.3 3.6h8.8l.3 45.2.3 45.3 3 5.4c6.1 11 14.7 14.6 34.5 14.6 15.2-.1 19-1.1 31.3-8.5 3.6-2.2 6.8-4 7-4 .3 0 .7 1.7 1 3.8 1.3 7.6 1.5 7.7 19.7 7.7 14.8 0 16.3-.2 17.6-1.9 1.8-2.6 1.8-5.1-.2-7-1.2-1.3-3.9-1.6-12.4-1.6h-10.9l-.3-53.3c-.2-43.5-.6-53.7-1.7-55-1.1-1.5-3.7-1.7-17.7-1.7-17.6 0-19.4.5-19.4 5.4 0 4.1 2.5 5.1 14.1 5.4l10.9.4v36.2c0 40.2-.3 43-6.3 50.8-6.5 8.5-17 12.8-31.8 12.8-14.1 0-21.9-3.6-24.8-11.3-.7-1.9-1.1-19-1.1-49.7 0-41.3-.2-47-1.6-48.4-1.3-1.3-4.4-1.6-17.9-1.6H861l-1.6 2.5zM1718.8 1162.1c-2.3 1.3-2.3 6.2-.1 8 1.2 1.1 6.7 1.5 23 1.7l21.3.3-.2 49.2-.3 49.2-22.4.3c-15 .1-22.9.6-23.8 1.4-2.2 1.8-1.2 7.1 1.7 8.5 3.6 1.8 94.4 1.8 98 0 2.9-1.4 3.9-6.7 1.7-8.5-.9-.8-8.2-1.2-21.3-1.4l-19.9-.3-.5-53.8c-.4-46.3-.7-53.9-2-54.7-2.1-1.3-53-1.2-55.2.1zM38 1597.5v3.5h2599v-7H38v3.5z"/></svg>