<?xml version="1.0" encoding="UTF-8" standalone="no"?>
<!-- Created with Inkscape (http://www.inkscape.org/) -->

<svg
   xmlns:dc="http://purl.org/dc/elements/1.1/"
   xmlns:cc="http://creativecommons.org/ns#"
   xmlns:rdf="http://www.w3.org/1999/02/22-rdf-syntax-ns#"
   xmlns:svg="http://www.w3.org/2000/svg"
   xmlns="http://www.w3.org/2000/svg"
   xmlns:sodipodi="http://sodipodi.sourceforge.net/DTD/sodipodi-0.dtd"
   xmlns:inkscape="http://www.inkscape.org/namespaces/inkscape"
   width="89mm"
   height="19mm"
   viewBox="0 0 89 19"
   version="1.1"
   id="svg8"
   inkscape:version="0.92.5 (2060ec1f9f, 2020-04-08)"
   sodipodi:docname="logo.svg">
  <defs
     id="defs2" />
  <sodipodi:namedview
     id="base"
     pagecolor="#ffffff"
     bordercolor="#666666"
     borderopacity="1.0"
     inkscape:pageopacity="0.0"
     inkscape:pageshadow="2"
     inkscape:zoom="1.979899"
     inkscape:cx="257.7006"
     inkscape:cy="89.270039"
     inkscape:document-units="mm"
     inkscape:current-layer="layer1"
     showgrid="false"
     inkscape:window-width="1920"
     inkscape:window-height="1016"
     inkscape:window-x="0"
     inkscape:window-y="27"
     inkscape:window-maximized="1">
    <inkscape:grid
       type="xygrid"
       id="grid22" />
  </sodipodi:namedview>
  <metadata
     id="metadata5">
    <rdf:RDF>
      <cc:Work
         rdf:about="">
        <dc:format>image/svg+xml</dc:format>
        <dc:type
           rdf:resource="http://purl.org/dc/dcmitype/StillImage" />
        <dc:title />
      </cc:Work>
    </rdf:RDF>
  </metadata>
  <g
     inkscape:label="Layer 1"
     inkscape:groupmode="layer"
     id="layer1"
     transform="translate(0,-278)">
    <g
       aria-label="Computational"
       style="font-style:normal;font-variant:normal;font-weight:normal;font-stretch:normal;font-size:9.51193523px;line-height:1.25;font-family:'Latin Modern Mono Light';-inkscape-font-specification:'Latin Modern Mono Light, Normal';font-variant-ligatures:normal;font-variant-caps:normal;font-variant-numeric:normal;font-feature-settings:normal;text-align:start;letter-spacing:1.93145835px;word-spacing:0px;writing-mode:lr-tb;text-anchor:start;fill:#000000;fill-opacity:1;stroke:none;stroke-width:0.25478396"
       id="text12-3-3-3-4">
      <path
         d="m 5.1440664,283.90451 c 0,-0.22829 -0.1712148,-0.22829 -0.2473103,-0.22829 -0.057072,0 -0.2187745,0 -0.2377984,0.19024 -0.066584,1.0368 -0.9321697,1.29363 -1.3602067,1.29363 -0.9321697,0 -1.8453155,-1.07485 -1.8453155,-2.61579 0,-1.53142 0.9226577,-2.60627 1.8358035,-2.60627 0.6277877,0 1.2175277,0.4756 1.3602068,1.33167 0.028536,0.12366 0.04756,0.2378 0.2473103,0.2378 0.2473103,0 0.2473103,-0.15219 0.2473103,-0.30438 v -1.36021 c 0,-0.11414 0,-0.30438 -0.1997506,-0.30438 -0.095119,0 -0.152191,0.0666 -0.1902388,0.11415 -0.00951,0.038 -0.019024,0.0761 -0.1997506,0.40901 -0.3995013,-0.34243 -0.8275384,-0.52316 -1.3031351,-0.52316 -1.2270397,0 -2.27335254,1.2746 -2.27335254,3.00577 0,1.74069 1.04631284,3.01529 2.28286444,3.01529 1.0748487,0 1.8833632,-0.81803 1.8833632,-1.65508 z"
         style="font-style:normal;font-variant:normal;font-weight:normal;font-stretch:normal;font-size:9.51193523px;font-family:'Latin Modern Mono Light';-inkscape-font-specification:'Latin Modern Mono Light, Normal';font-variant-ligatures:normal;font-variant-caps:normal;font-variant-numeric:normal;font-feature-settings:normal;text-align:start;letter-spacing:1.93145835px;writing-mode:lr-tb;text-anchor:start;stroke-width:0.25478396"
         id="path44" />
      <path
         d="m 11.907584,283.42891 c 0,-1.16996 -0.875098,-2.10213 -1.9214105,-2.10213 -1.0463128,0 -1.9214109,0.93217 -1.9214109,2.10213 0,1.189 0.8941219,2.08312 1.9214109,2.08312 1.0272895,0 1.9214105,-0.90364 1.9214105,-2.08312 z m -0.485108,-0.0666 c 0,0.97022 -0.665836,1.7502 -1.4363025,1.7502 -0.7799786,0 -1.4363022,-0.77998 -1.4363022,-1.7502 0,-0.96071 0.6943713,-1.63605 1.4363022,-1.63605 0.7514425,0 1.4363025,0.67534 1.4363025,1.63605 z"
         style="font-style:normal;font-variant:normal;font-weight:normal;font-stretch:normal;font-size:9.51193523px;font-family:'Latin Modern Mono Light';-inkscape-font-specification:'Latin Modern Mono Light, Normal';font-variant-ligatures:normal;font-variant-caps:normal;font-variant-numeric:normal;font-feature-settings:normal;text-align:start;letter-spacing:1.93145835px;writing-mode:lr-tb;text-anchor:start;stroke-width:0.25478396"
         id="path46" />
      <path
         d="m 19.308402,285.25521 c 0,-0.19976 -0.161703,-0.19976 -0.54218,-0.19976 v -2.48261 c 0,-0.18073 -0.01902,-1.21753 -0.789491,-1.21753 -0.275846,0 -0.646811,0.11415 -0.998753,0.60877 -0.199751,-0.44707 -0.437549,-0.60877 -0.722907,-0.60877 -0.29487,0 -0.54218,0.12366 -0.913146,0.46609 -0.02854,-0.40902 -0.180727,-0.40902 -0.313894,-0.40902 h -0.313894 c -0.104631,0 -0.304381,0 -0.304381,0.19975 0,0.19975 0.161702,0.19975 0.54218,0.19975 v 3.24357 c -0.380478,0 -0.54218,0 -0.54218,0.19976 0,0.19975 0.209262,0.19975 0.304381,0.19975 h 0.865587 c 0.114143,0 0.304382,0 0.304382,-0.19975 0,-0.19976 -0.161703,-0.19976 -0.542181,-0.19976 v -1.86433 c 0,-0.9512 0.437549,-1.43631 0.875098,-1.43631 0.256822,0 0.437549,0.17122 0.437549,0.90364 v 2.397 c -0.237798,0 -0.409013,0 -0.409013,0.19976 0,0.19975 0.199751,0.19975 0.304382,0.19975 h 0.732419 c 0.114143,0 0.304382,0 0.304382,-0.19975 0,-0.19976 -0.161703,-0.19976 -0.54218,-0.19976 v -1.86433 c 0,-0.9512 0.447061,-1.43631 0.894122,-1.43631 0.256822,0 0.437549,0.17122 0.437549,0.90364 v 2.397 c -0.237799,0 -0.409014,0 -0.409014,0.19976 0,0.19975 0.199751,0.19975 0.304382,0.19975 h 0.732419 c 0.104632,0 0.304382,0 0.304382,-0.19975 z"
         style="font-style:normal;font-variant:normal;font-weight:normal;font-stretch:normal;font-size:9.51193523px;font-family:'Latin Modern Mono Light';-inkscape-font-specification:'Latin Modern Mono Light, Normal';font-variant-ligatures:normal;font-variant-caps:normal;font-variant-numeric:normal;font-feature-settings:normal;text-align:start;letter-spacing:1.93145835px;writing-mode:lr-tb;text-anchor:start;stroke-width:0.25478396"
         id="path48" />
      <path
         d="m 25.957778,283.42891 c 0,-1.15094 -0.827539,-2.0736 -1.81678,-2.0736 -0.447061,0 -0.865586,0.17122 -1.350695,0.60877 0,-0.44707 -0.0095,-0.5517 -0.29487,-0.5517 h -0.713395 c -0.114143,0 -0.304382,0 -0.304382,0.20927 0,0.19023 0.190239,0.19023 0.29487,0.19023 h 0.54218 v 5.42181 h -0.532668 c -0.114143,0 -0.304382,0 -0.304382,0.20926 0,0.19975 0.190239,0.19975 0.29487,0.19975 h 1.559957 c 0.104632,0 0.29487,0 0.29487,-0.19975 0,-0.20926 -0.190238,-0.20926 -0.304382,-0.20926 h -0.532668 v -2.36847 c 0.551692,0.5612 0.951194,0.64681 1.246064,0.64681 1.017777,0 1.921411,-0.89412 1.921411,-2.08312 z m -0.475597,0 c 0,1.00827 -0.741931,1.68362 -1.47435,1.68362 -0.837051,0 -1.217528,-0.93217 -1.217528,-1.43631 v -0.7229 c 0,-0.62779 0.618276,-1.19851 1.293623,-1.19851 0.779979,0 1.398255,0.76096 1.398255,1.6741 z"
         style="font-style:normal;font-variant:normal;font-weight:normal;font-stretch:normal;font-size:9.51193523px;font-family:'Latin Modern Mono Light';-inkscape-font-specification:'Latin Modern Mono Light, Normal';font-variant-ligatures:normal;font-variant-caps:normal;font-variant-numeric:normal;font-feature-settings:normal;text-align:start;letter-spacing:1.93145835px;writing-mode:lr-tb;text-anchor:start;stroke-width:0.25478396"
         id="path50" />
      <path
         d="m 33.120796,285.24569 c 0,-0.19024 -0.190238,-0.19024 -0.29487,-0.19024 h -0.54218 v -3.33868 c 0,-0.22829 -0.03805,-0.30439 -0.29487,-0.30439 h -0.713395 c -0.114143,0 -0.304382,0 -0.304382,0.20927 0,0.19023 0.190239,0.19023 0.29487,0.19023 h 0.54218 v 2.19726 c 0,0.97022 -0.865586,1.10339 -1.217527,1.10339 -0.875098,0 -0.875098,-0.38048 -0.875098,-0.74193 v -2.65383 c 0,-0.22829 -0.03805,-0.30439 -0.29487,-0.30439 h -0.713396 c -0.114143,0 -0.304381,0 -0.304381,0.20927 0,0.19023 0.190238,0.19023 0.294869,0.19023 h 0.542181 v 2.61579 c 0,0.8751 0.627788,1.08436 1.293623,1.08436 0.380477,0 0.770467,-0.0951 1.265087,-0.46609 0.0095,0.40902 0.171215,0.40902 0.304382,0.40902 h 0.713395 c 0.114144,0 0.304382,0 0.304382,-0.20927 z"
         style="font-style:normal;font-variant:normal;font-weight:normal;font-stretch:normal;font-size:9.51193523px;font-family:'Latin Modern Mono Light';-inkscape-font-specification:'Latin Modern Mono Light, Normal';font-variant-ligatures:normal;font-variant-caps:normal;font-variant-numeric:normal;font-feature-settings:normal;text-align:start;letter-spacing:1.93145835px;writing-mode:lr-tb;text-anchor:start;stroke-width:0.25478396"
         id="path52" />
      <path
         d="m 39.427739,284.31352 c 0,-0.13316 0,-0.28535 -0.24731,-0.28535 -0.237799,0 -0.237799,0.15219 -0.237799,0.27584 -0.0095,0.69437 -0.637299,0.80852 -0.894121,0.80852 -0.856075,0 -0.856075,-0.58023 -0.856075,-0.85608 v -2.44457 h 1.712149 c 0.104631,0 0.29487,0 0.29487,-0.19023 0,-0.20927 -0.180727,-0.20927 -0.29487,-0.20927 h -1.712149 v -0.90363 c 0,-0.13317 0,-0.30438 -0.237798,-0.30438 -0.237798,0 -0.237798,0.1617 -0.237798,0.30438 v 0.90363 h -0.960706 c -0.114143,0 -0.304382,0 -0.304382,0.20927 0,0.19023 0.190239,0.19023 0.29487,0.19023 h 0.970218 v 2.50164 c 0,0.8751 0.618275,1.19851 1.284111,1.19851 0.675347,0 1.42679,-0.38048 1.42679,-1.19851 z"
         style="font-style:normal;font-variant:normal;font-weight:normal;font-stretch:normal;font-size:9.51193523px;font-family:'Latin Modern Mono Light';-inkscape-font-specification:'Latin Modern Mono Light, Normal';font-variant-ligatures:normal;font-variant-caps:normal;font-variant-numeric:normal;font-feature-settings:normal;text-align:start;letter-spacing:1.93145835px;writing-mode:lr-tb;text-anchor:start;stroke-width:0.25478396"
         id="path54" />
      <path
         d="m 46.999775,285.24569 c 0,-0.19024 -0.190239,-0.19024 -0.304382,-0.19024 -0.389989,0 -0.532668,-0.0571 -0.684859,-0.11414 v -2.18774 c 0,-0.66584 -0.513645,-1.42679 -1.845316,-1.42679 -0.389989,0 -1.331671,0 -1.331671,0.61827 0,0.22829 0.161703,0.35194 0.34243,0.35194 0.114143,0 0.332918,-0.0666 0.34243,-0.35194 0,-0.18072 0.361453,-0.21877 0.656323,-0.21877 0.808515,0 1.350695,0.34243 1.350695,1.1985 -1.759708,0.0285 -2.9487,0.46609 -2.9487,1.36972 0,0.6373 0.58974,1.21753 1.531422,1.21753 0.342429,0 0.932169,-0.0666 1.455326,-0.40902 0.24731,0.35195 0.694371,0.35195 1.036801,0.35195 0.209262,0 0.399501,0 0.399501,-0.20927 z m -1.47435,-1.00826 c 0,0.25682 0,0.49462 -0.437549,0.69437 -0.370965,0.18073 -0.83705,0.18073 -0.913146,0.18073 -0.675347,0 -1.112896,-0.38999 -1.112896,-0.81803 0,-0.50413 0.865586,-0.94168 2.463591,-0.98924 z"
         style="font-style:normal;font-variant:normal;font-weight:normal;font-stretch:normal;font-size:9.51193523px;font-family:'Latin Modern Mono Light';-inkscape-font-specification:'Latin Modern Mono Light, Normal';font-variant-ligatures:normal;font-variant-caps:normal;font-variant-numeric:normal;font-feature-settings:normal;text-align:start;letter-spacing:1.93145835px;writing-mode:lr-tb;text-anchor:start;stroke-width:0.25478396"
         id="path56" />
      <path
         d="m 53.278184,284.31352 c 0,-0.13316 0,-0.28535 -0.24731,-0.28535 -0.237799,0 -0.237799,0.15219 -0.237799,0.27584 -0.0095,0.69437 -0.637299,0.80852 -0.894122,0.80852 -0.856074,0 -0.856074,-0.58023 -0.856074,-0.85608 v -2.44457 h 1.712149 c 0.104631,0 0.29487,0 0.29487,-0.19023 0,-0.20927 -0.180727,-0.20927 -0.29487,-0.20927 h -1.712149 v -0.90363 c 0,-0.13317 0,-0.30438 -0.237798,-0.30438 -0.237799,0 -0.237799,0.1617 -0.237799,0.30438 v 0.90363 h -0.960705 c -0.114143,0 -0.304382,0 -0.304382,0.20927 0,0.19023 0.190239,0.19023 0.29487,0.19023 h 0.970217 v 2.50164 c 0,0.8751 0.618276,1.19851 1.284112,1.19851 0.675347,0 1.42679,-0.38048 1.42679,-1.19851 z"
         style="font-style:normal;font-variant:normal;font-weight:normal;font-stretch:normal;font-size:9.51193523px;font-family:'Latin Modern Mono Light';-inkscape-font-specification:'Latin Modern Mono Light, Normal';font-variant-ligatures:normal;font-variant-caps:normal;font-variant-numeric:normal;font-feature-settings:normal;text-align:start;letter-spacing:1.93145835px;writing-mode:lr-tb;text-anchor:start;stroke-width:0.25478396"
         id="path58" />
      <path
         d="m 60.260476,285.25521 c 0,-0.19976 -0.199751,-0.19976 -0.304382,-0.19976 h -1.13192 v -3.33868 c 0,-0.22829 -0.03805,-0.30439 -0.29487,-0.30439 h -1.398255 c -0.104631,0 -0.304382,0 -0.304382,0.19975 0,0.19975 0.199751,0.19975 0.304382,0.19975 h 1.217528 v 3.24357 h -1.293623 c -0.114143,0 -0.304382,0 -0.304382,0.19976 0,0.19975 0.199751,0.19975 0.304382,0.19975 h 2.90114 c 0.104631,0 0.304382,0 0.304382,-0.19975 z m -1.398254,-5.15547 c 0,-0.22829 -0.171215,-0.3995 -0.38999,-0.3995 -0.218774,0 -0.389989,0.17121 -0.389989,0.3995 0,0.21877 0.171215,0.38999 0.389989,0.38999 0.218775,0 0.38999,-0.17122 0.38999,-0.38999 z"
         style="font-style:normal;font-variant:normal;font-weight:normal;font-stretch:normal;font-size:9.51193523px;font-family:'Latin Modern Mono Light';-inkscape-font-specification:'Latin Modern Mono Light, Normal';font-variant-ligatures:normal;font-variant-caps:normal;font-variant-numeric:normal;font-feature-settings:normal;text-align:start;letter-spacing:1.93145835px;writing-mode:lr-tb;text-anchor:start;stroke-width:0.25478396"
         id="path60" />
      <path
         d="m 67.309352,283.42891 c 0,-1.16996 -0.875098,-2.10213 -1.921411,-2.10213 -1.046313,0 -1.921411,0.93217 -1.921411,2.10213 0,1.189 0.894122,2.08312 1.921411,2.08312 1.027289,0 1.921411,-0.90364 1.921411,-2.08312 z m -0.485109,-0.0666 c 0,0.97022 -0.665835,1.7502 -1.436302,1.7502 -0.779979,0 -1.436302,-0.77998 -1.436302,-1.7502 0,-0.96071 0.694371,-1.63605 1.436302,-1.63605 0.751443,0 1.436302,0.67534 1.436302,1.63605 z"
         style="font-style:normal;font-variant:normal;font-weight:normal;font-stretch:normal;font-size:9.51193523px;font-family:'Latin Modern Mono Light';-inkscape-font-specification:'Latin Modern Mono Light, Normal';font-variant-ligatures:normal;font-variant-caps:normal;font-variant-numeric:normal;font-feature-settings:normal;text-align:start;letter-spacing:1.93145835px;writing-mode:lr-tb;text-anchor:start;stroke-width:0.25478396"
         id="path62" />
      <path
         d="m 74.672117,285.25521 c 0,-0.19976 -0.190238,-0.19976 -0.304382,-0.19976 h -0.532668 v -2.38749 c 0,-0.91315 -0.456573,-1.31265 -1.17948,-1.31265 -0.618276,0 -1.036801,0.3139 -1.388742,0.65633 0,-0.4756 0,-0.59926 -0.29487,-0.59926 h -0.713396 c -0.114143,0 -0.304381,0 -0.304381,0.20927 0,0.19023 0.190238,0.19023 0.29487,0.19023 h 0.54218 v 3.24357 h -0.532669 c -0.114143,0 -0.304381,0 -0.304381,0.19976 0,0.19975 0.190238,0.19975 0.29487,0.19975 h 1.559957 c 0.104631,0 0.29487,0 0.29487,-0.19975 0,-0.19976 -0.190239,-0.19976 -0.304382,-0.19976 h -0.532668 v -1.84531 c 0,-1.05583 0.78949,-1.45533 1.331671,-1.45533 0.58974,0 0.760954,0.30439 0.760954,0.97022 v 2.33042 h -0.485108 c -0.114144,0 -0.304382,0 -0.304382,0.19976 0,0.19975 0.19975,0.19975 0.304382,0.19975 h 1.502885 c 0.104632,0 0.29487,0 0.29487,-0.19975 z"
         style="font-style:normal;font-variant:normal;font-weight:normal;font-stretch:normal;font-size:9.51193523px;font-family:'Latin Modern Mono Light';-inkscape-font-specification:'Latin Modern Mono Light, Normal';font-variant-ligatures:normal;font-variant-caps:normal;font-variant-numeric:normal;font-feature-settings:normal;text-align:start;letter-spacing:1.93145835px;writing-mode:lr-tb;text-anchor:start;stroke-width:0.25478396"
         id="path64" />
      <path
         d="m 81.625878,285.24569 c 0,-0.19024 -0.190239,-0.19024 -0.304382,-0.19024 -0.38999,0 -0.532669,-0.0571 -0.68486,-0.11414 v -2.18774 c 0,-0.66584 -0.513644,-1.42679 -1.845315,-1.42679 -0.38999,0 -1.331671,0 -1.331671,0.61827 0,0.22829 0.161703,0.35194 0.34243,0.35194 0.114143,0 0.332917,-0.0666 0.342429,-0.35194 0,-0.18072 0.361454,-0.21877 0.656324,-0.21877 0.808514,0 1.350695,0.34243 1.350695,1.1985 -1.759708,0.0285 -2.9487,0.46609 -2.9487,1.36972 0,0.6373 0.58974,1.21753 1.531421,1.21753 0.34243,0 0.93217,-0.0666 1.455326,-0.40902 0.247311,0.35195 0.694372,0.35195 1.036801,0.35195 0.209263,0 0.399502,0 0.399502,-0.20927 z m -1.47435,-1.00826 c 0,0.25682 0,0.49462 -0.437549,0.69437 -0.370966,0.18073 -0.837051,0.18073 -0.913146,0.18073 -0.675348,0 -1.112897,-0.38999 -1.112897,-0.81803 0,-0.50413 0.865586,-0.94168 2.463592,-0.98924 z"
         style="font-style:normal;font-variant:normal;font-weight:normal;font-stretch:normal;font-size:9.51193523px;font-family:'Latin Modern Mono Light';-inkscape-font-specification:'Latin Modern Mono Light, Normal';font-variant-ligatures:normal;font-variant-caps:normal;font-variant-numeric:normal;font-feature-settings:normal;text-align:start;letter-spacing:1.93145835px;writing-mode:lr-tb;text-anchor:start;stroke-width:0.25478396"
         id="path66" />
      <path
         d="m 88.085017,285.25521 c 0,-0.19976 -0.180727,-0.19976 -0.29487,-0.19976 h -1.379231 v -5.1079 c 0,-0.22829 -0.04756,-0.30439 -0.29487,-0.30439 h -1.559957 c -0.114143,0 -0.304382,0 -0.304382,0.20927 0,0.19023 0.199751,0.19023 0.29487,0.19023 h 1.379231 v 5.01279 h -1.369719 c -0.114143,0 -0.304382,0 -0.304382,0.19976 0,0.19975 0.199751,0.19975 0.29487,0.19975 h 3.24357 c 0.104631,0 0.29487,0 0.29487,-0.19975 z"
         style="font-style:normal;font-variant:normal;font-weight:normal;font-stretch:normal;font-size:9.51193523px;font-family:'Latin Modern Mono Light';-inkscape-font-specification:'Latin Modern Mono Light, Normal';font-variant-ligatures:normal;font-variant-caps:normal;font-variant-numeric:normal;font-feature-settings:normal;text-align:start;letter-spacing:1.93145835px;writing-mode:lr-tb;text-anchor:start;stroke-width:0.25478396"
         id="path68" />
    </g>
    <g
       aria-label="LiteraryStudies"
       style="font-style:normal;font-variant:normal;font-weight:normal;font-stretch:normal;font-size:10.58333302px;line-height:1.25;font-family:'Latin Modern Roman Caps';-inkscape-font-specification:'Latin Modern Roman Caps';font-variant-ligatures:normal;font-variant-caps:normal;font-variant-numeric:normal;font-feature-settings:normal;text-align:start;letter-spacing:0px;word-spacing:0px;writing-mode:lr-tb;text-anchor:start;fill:#800000;fill-opacity:1;stroke:none;stroke-width:0.26458332"
       id="text20-3-7-3-8">
      <path
         d="M 7.3751259,290.66614 H 7.1105426 c -0.1164167,1.05833 -0.2645834,2.40241 -2.2119166,2.40241 H 3.9037927 c -0.4974167,0 -0.5185834,-0.0741 -0.5185834,-0.42333 v -5.64092 c 0,-0.35983 0,-0.508 1.0054167,-0.508 h 0.34925 v -0.32808 c -0.381,0.0317 -1.3440833,0.0317 -1.778,0.0317 -0.41275,0 -1.2382499,0 -1.6086666,-0.0317 v 0.32808 h 0.254 c 0.8149166,0 0.8360833,0.11642 0.8360833,0.49742 v 5.57742 c 0,0.381 -0.021167,0.49741 -0.8360833,0.49741 h -0.254 v 0.32809 h 5.7255832 z"
         style="font-style:normal;font-variant:normal;font-weight:normal;font-stretch:normal;font-size:10.58333302px;font-family:'Latin Modern Roman Caps';-inkscape-font-specification:'Latin Modern Roman Caps';font-variant-ligatures:normal;font-variant-caps:normal;font-variant-numeric:normal;font-feature-settings:normal;text-align:start;writing-mode:lr-tb;text-anchor:start;fill:#800000;stroke-width:0.26458332"
         id="path13" />
      <path
         d="m 10.782945,293.39664 v -0.26459 c -0.751417,0 -0.8043335,-0.0529 -0.8043335,-0.508 v -3.89466 c 0,-0.45509 0.052917,-0.508 0.8043335,-0.508 v -0.26459 l -1.1853335,0.0317 -1.1853333,-0.0317 v 0.26459 c 0.7514167,0 0.8043333,0.0529 0.8043333,0.508 v 3.89466 c 0,0.45509 -0.052917,0.508 -0.8043333,0.508 v 0.26459 l 1.1853333,-0.0317 z"
         style="font-style:normal;font-variant:normal;font-weight:normal;font-stretch:normal;font-size:10.58333302px;font-family:'Latin Modern Roman Caps';-inkscape-font-specification:'Latin Modern Roman Caps';font-variant-ligatures:normal;font-variant-caps:normal;font-variant-numeric:normal;font-feature-settings:normal;text-align:start;writing-mode:lr-tb;text-anchor:start;fill:#800000;stroke-width:0.26458332"
         id="path15" />
      <path
         d="m 17.069425,289.80889 -0.148167,-1.78859 h -5.196416 l -0.148167,1.78859 h 0.264584 c 0.09525,-1.3335 0.306916,-1.524 1.481666,-1.524 0.592667,0 0.624417,0 0.624417,0.45508 v 3.85233 c 0,0.42334 -0.04233,0.53975 -0.85725,0.53975 h -0.22225 v 0.26459 c 0.41275,-0.0317 1.037166,-0.0317 1.4605,-0.0317 0.423333,0 1.04775,0 1.4605,0.0317 v -0.26459 h -0.22225 c -0.814917,0 -0.85725,-0.11641 -0.85725,-0.53975 v -3.85233 c 0,-0.45508 0.03175,-0.45508 0.624416,-0.45508 1.143,0 1.375834,0.17991 1.471084,1.524 z"
         style="font-style:normal;font-variant:normal;font-weight:normal;font-stretch:normal;font-size:10.58333302px;font-family:'Latin Modern Roman Caps';-inkscape-font-specification:'Latin Modern Roman Caps';font-variant-ligatures:normal;font-variant-caps:normal;font-variant-numeric:normal;font-feature-settings:normal;text-align:start;writing-mode:lr-tb;text-anchor:start;fill:#800000;stroke-width:0.26458332"
         id="path17" />
      <path
         d="m 23.049004,291.34347 h -0.264583 c -0.179917,1.28058 -0.433917,1.78858 -1.788584,1.78858 h -1.143 c -0.370416,0 -0.423333,-0.0317 -0.423333,-0.45508 v -1.95792 h 0.740833 c 0.783167,0 0.910167,0.21167 0.910167,0.92075 h 0.264583 v -2.10608 h -0.264583 c 0,0.70908 -0.127,0.92075 -0.910167,0.92075 h -0.740833 v -1.74625 c 0,-0.42333 0.05292,-0.45508 0.423333,-0.45508 h 1.0795 c 1.227667,0 1.502834,0.37041 1.61925,1.524 h 0.264584 l -0.201084,-1.78859 h -4.709583 v 0.26459 c 0.709083,0 0.762,0.0635 0.762,0.49741 v 3.88409 c 0,0.43391 -0.05292,0.49741 -0.762,0.49741 v 0.26459 h 4.836583 z"
         style="font-style:normal;font-variant:normal;font-weight:normal;font-stretch:normal;font-size:10.58333302px;font-family:'Latin Modern Roman Caps';-inkscape-font-specification:'Latin Modern Roman Caps';font-variant-ligatures:normal;font-variant-caps:normal;font-variant-numeric:normal;font-feature-settings:normal;text-align:start;writing-mode:lr-tb;text-anchor:start;fill:#800000;stroke-width:0.26458332"
         id="path19" />
      <path
         d="m 29.631822,292.67697 c 0,-0.0529 0,-0.15875 -0.137583,-0.15875 -0.116417,0 -0.127,0.0953 -0.127,0.13758 -0.07408,0.64559 -0.455083,0.65617 -0.529167,0.65617 -0.211666,0 -0.306916,-0.13758 -0.370416,-0.254 -0.08467,-0.16933 -0.148167,-0.46567 -0.28575,-1.143 -0.08467,-0.37042 -0.1905,-0.91017 -0.98425,-1.21708 0.740833,-0.1905 1.397,-0.66675 1.397,-1.31234 0,-0.74083 -0.941917,-1.42875 -2.2225,-1.42875 h -2.54 v 0.26459 c 0.709083,0 0.762,0.0635 0.762,0.49741 v 3.91584 c 0,0.43391 -0.05292,0.49741 -0.762,0.49741 v 0.26459 l 1.121833,-0.0317 1.132417,0.0317 v -0.26459 c -0.709084,0 -0.762,-0.0635 -0.762,-0.49741 v -1.8415 h 0.9525 c 0.264583,0 0.53975,0.0106 0.867833,0.33866 0.22225,0.23284 0.22225,0.48684 0.22225,0.9525 0,0.59267 0,0.78317 0.338667,1.11125 0.1905,0.1905 0.613833,0.34925 1.090083,0.34925 0.677333,0 0.836083,-0.65616 0.836083,-0.86783 z m -1.947333,-3.29142 c 0,0.41275 -0.05292,1.17475 -1.42875,1.17475 h -0.931333 v -1.88383 c 0,-0.26458 0.02117,-0.37042 0.127,-0.42333 0.07408,-0.0317 0.359833,-0.0317 0.550333,-0.0317 0.783167,0 1.68275,0.0317 1.68275,1.16416 z"
         style="font-style:normal;font-variant:normal;font-weight:normal;font-stretch:normal;font-size:10.58333302px;font-family:'Latin Modern Roman Caps';-inkscape-font-specification:'Latin Modern Roman Caps';font-variant-ligatures:normal;font-variant-caps:normal;font-variant-numeric:normal;font-feature-settings:normal;text-align:start;writing-mode:lr-tb;text-anchor:start;fill:#800000;stroke-width:0.26458332"
         id="path21" />
      <path
         d="m 35.854816,293.39664 v -0.26459 c -0.592666,0 -0.687916,-0.0529 -0.8255,-0.42333 l -1.820333,-4.699 c -0.0635,-0.16933 -0.116417,-0.23283 -0.232833,-0.23283 -0.148167,0 -0.169334,0.0635 -0.22225,0.20108 l -1.703917,4.37092 c -0.116417,0.28575 -0.296333,0.762 -0.963083,0.78316 v 0.26459 c 0.232833,-0.0212 0.53975,-0.0317 0.772583,-0.0317 l 0.878417,0.0317 v -0.26459 c -0.4445,-0.0212 -0.47625,-0.381 -0.47625,-0.47625 0,-0.0847 0,-0.10583 0.359833,-1.04775 h 2.19075 l 0.232833,0.59267 c 0.08467,0.21167 0.22225,0.5715 0.22225,0.635 0,0.29633 -0.381,0.29633 -0.560916,0.29633 v 0.26459 l 1.121833,-0.0317 c 0.359833,0 0.772583,0.0212 1.026583,0.0317 z M 33.7064,291.34347 h -1.979084 l 0.994834,-2.55058 z"
         style="font-style:normal;font-variant:normal;font-weight:normal;font-stretch:normal;font-size:10.58333302px;font-family:'Latin Modern Roman Caps';-inkscape-font-specification:'Latin Modern Roman Caps';font-variant-ligatures:normal;font-variant-caps:normal;font-variant-numeric:normal;font-feature-settings:normal;text-align:start;writing-mode:lr-tb;text-anchor:start;fill:#800000;stroke-width:0.26458332"
         id="path23" />
      <path
         d="m 42.490555,292.67697 c 0,-0.0529 0,-0.15875 -0.137584,-0.15875 -0.116416,0 -0.127,0.0953 -0.127,0.13758 -0.07408,0.64559 -0.455083,0.65617 -0.529166,0.65617 -0.211667,0 -0.306917,-0.13758 -0.370417,-0.254 -0.08467,-0.16933 -0.148167,-0.46567 -0.28575,-1.143 -0.08467,-0.37042 -0.1905,-0.91017 -0.98425,-1.21708 0.740833,-0.1905 1.397,-0.66675 1.397,-1.31234 0,-0.74083 -0.941917,-1.42875 -2.2225,-1.42875 h -2.54 v 0.26459 c 0.709083,0 0.762,0.0635 0.762,0.49741 v 3.91584 c 0,0.43391 -0.05292,0.49741 -0.762,0.49741 v 0.26459 l 1.121833,-0.0317 1.132417,0.0317 v -0.26459 c -0.709083,0 -0.762,-0.0635 -0.762,-0.49741 v -1.8415 h 0.9525 c 0.264583,0 0.53975,0.0106 0.867833,0.33866 0.22225,0.23284 0.22225,0.48684 0.22225,0.9525 0,0.59267 0,0.78317 0.338667,1.11125 0.1905,0.1905 0.613833,0.34925 1.090083,0.34925 0.677334,0 0.836084,-0.65616 0.836084,-0.86783 z m -1.947334,-3.29142 c 0,0.41275 -0.05292,1.17475 -1.42875,1.17475 h -0.931333 v -1.88383 c 0,-0.26458 0.02117,-0.37042 0.127,-0.42333 0.07408,-0.0317 0.359833,-0.0317 0.550333,-0.0317 0.783167,0 1.68275,0.0317 1.68275,1.16416 z"
         style="font-style:normal;font-variant:normal;font-weight:normal;font-stretch:normal;font-size:10.58333302px;font-family:'Latin Modern Roman Caps';-inkscape-font-specification:'Latin Modern Roman Caps';font-variant-ligatures:normal;font-variant-caps:normal;font-variant-numeric:normal;font-feature-settings:normal;text-align:start;writing-mode:lr-tb;text-anchor:start;fill:#800000;stroke-width:0.26458332"
         id="path25" />
      <path
         d="m 48.163198,288.22139 v -0.26459 c -0.22225,0.0212 -0.518584,0.0317 -0.740834,0.0317 -0.28575,0 -0.582083,-0.0106 -0.867833,-0.0317 v 0.26459 c 0.232833,0.0212 0.306917,0.14816 0.306917,0.3175 0,0.15875 -0.08467,0.28575 -0.15875,0.40216 l -1.30175,1.92617 -1.4605,-2.14842 c -0.05292,-0.0741 -0.127,-0.17991 -0.127,-0.28575 0,-0.21166 0.306916,-0.21166 0.433916,-0.21166 v -0.26459 l -1.143,0.0317 c -0.28575,0 -0.709083,-0.0106 -1.026583,-0.0317 v 0.26459 c 0.550333,0 0.677333,0.0635 0.867833,0.33866 l 1.80975,2.65642 v 1.41817 c 0,0.43391 -0.05292,0.49741 -0.762,0.49741 v 0.26459 l 1.121834,-0.0317 1.132416,0.0317 v -0.26459 c -0.719666,0 -0.762,-0.0635 -0.762,-0.52916 v -1.37584 l 1.534584,-2.26483 c 0.381,-0.5715 0.73025,-0.71967 1.143,-0.74083 z"
         style="font-style:normal;font-variant:normal;font-weight:normal;font-stretch:normal;font-size:10.58333302px;font-family:'Latin Modern Roman Caps';-inkscape-font-specification:'Latin Modern Roman Caps';font-variant-ligatures:normal;font-variant-caps:normal;font-variant-numeric:normal;font-feature-settings:normal;text-align:start;writing-mode:lr-tb;text-anchor:start;fill:#800000;stroke-width:0.26458332"
         id="path27" />
      <path
         d="m 54.058103,291.43872 c 0,-0.84667 -0.508,-1.85208 -1.672167,-2.13783 l -1.439333,-0.34925 c -0.92075,-0.22225 -1.143,-0.9525 -1.143,-1.3335 0,-0.71967 0.60325,-1.38642 1.502833,-1.38642 1.4605,0 2.021417,1.06892 2.169583,2.14842 0.02117,0.13758 0.02117,0.1905 0.137584,0.1905 0.137583,0 0.137583,-0.0529 0.137583,-0.254 v -2.12725 c 0,-0.17992 0,-0.254 -0.116417,-0.254 -0.07408,0 -0.07408,0.0106 -0.15875,0.13758 l -0.391583,0.62442 c -0.28575,-0.28575 -0.772583,-0.762 -1.788583,-0.762 -1.227667,0 -2.169583,0.93133 -2.169583,2.05316 0,0.67734 0.359833,1.15359 0.497416,1.31234 0.497417,0.51858 0.814917,0.59266 1.693333,0.80433 0.169334,0.0423 0.34925,0.0741 0.518584,0.11642 0.624416,0.14816 0.836083,0.20108 1.164166,0.56091 0.0635,0.0741 0.381,0.43392 0.381,1.00542 0,0.75142 -0.560916,1.51342 -1.524,1.51342 -0.4445,0 -1.153583,-0.0847 -1.735666,-0.53975 -0.687917,-0.53975 -0.719667,-1.31234 -0.73025,-1.67217 -0.01058,-0.0741 -0.07408,-0.0953 -0.127,-0.0953 -0.137583,0 -0.137583,0.0741 -0.137583,0.26458 v 2.11667 c 0,0.17992 0,0.254 0.116416,0.254 0.07408,0 0.09525,-0.0318 0.15875,-0.127 l 0.391584,-0.635 c 0.296333,0.30692 0.984249,0.762 2.074333,0.762 1.322916,0 2.19075,-1.06892 2.19075,-2.19075 z"
         style="font-style:normal;font-variant:normal;font-weight:normal;font-stretch:normal;font-size:10.58333302px;font-family:'Latin Modern Roman Caps';-inkscape-font-specification:'Latin Modern Roman Caps';font-variant-ligatures:normal;font-variant-caps:normal;font-variant-numeric:normal;font-feature-settings:normal;text-align:start;writing-mode:lr-tb;text-anchor:start;fill:#800000;stroke-width:0.26458332"
         id="path29" />
      <path
         d="m 60.704416,289.80889 -0.148167,-1.78859 h -5.196416 l -0.148167,1.78859 h 0.264583 c 0.09525,-1.3335 0.306917,-1.524 1.481667,-1.524 0.592666,0 0.624416,0 0.624416,0.45508 v 3.85233 c 0,0.42334 -0.04233,0.53975 -0.85725,0.53975 h -0.222249 v 0.26459 c 0.412749,-0.0317 1.037166,-0.0317 1.460499,-0.0317 0.423334,0 1.04775,0 1.4605,0.0317 v -0.26459 h -0.22225 c -0.814916,0 -0.85725,-0.11641 -0.85725,-0.53975 v -3.85233 c 0,-0.45508 0.03175,-0.45508 0.624417,-0.45508 1.143,0 1.375833,0.17991 1.471083,1.524 z"
         style="font-style:normal;font-variant:normal;font-weight:normal;font-stretch:normal;font-size:10.58333302px;font-family:'Latin Modern Roman Caps';-inkscape-font-specification:'Latin Modern Roman Caps';font-variant-ligatures:normal;font-variant-caps:normal;font-variant-numeric:normal;font-feature-settings:normal;text-align:start;writing-mode:lr-tb;text-anchor:start;fill:#800000;stroke-width:0.26458332"
         id="path31" />
      <path
         d="m 67.117911,288.22139 v -0.26459 c -0.264583,0.0212 -0.8255,0.0317 -0.889,0.0317 -0.296333,0 -0.60325,-0.0106 -0.899583,-0.0317 v 0.26459 c 0.762,0 0.762,0.56091 0.762,0.80433 v 2.48708 c 0,1.22767 -0.910167,1.76742 -1.629833,1.76742 -0.3175,0 -1.397,-0.127 -1.397,-1.7145 v -2.84692 c 0,-0.43391 0.05292,-0.49741 0.762,-0.49741 v -0.26459 l -1.143,0.0317 -1.143,-0.0317 v 0.26459 c 0.719666,0 0.762,0.0635 0.762,0.51858 v 2.29658 c 0,0.26459 0,0.65617 0.02117,0.79375 0.09525,0.85725 0.941917,1.7145 2.116667,1.7145 1.227667,0 1.905,-1.0795 1.915583,-1.85208 v -2.81517 c 0.01058,-0.42333 0.28575,-0.65616 0.762,-0.65616 z"
         style="font-style:normal;font-variant:normal;font-weight:normal;font-stretch:normal;font-size:10.58333302px;font-family:'Latin Modern Roman Caps';-inkscape-font-specification:'Latin Modern Roman Caps';font-variant-ligatures:normal;font-variant-caps:normal;font-variant-numeric:normal;font-feature-settings:normal;text-align:start;writing-mode:lr-tb;text-anchor:start;fill:#800000;stroke-width:0.26458332"
         id="path33" />
      <path
         d="m 73.637233,290.71905 c 0,-1.4605 -1.090083,-2.76225 -2.614083,-2.76225 h -2.973917 v 0.26459 c 0.709083,0 0.762,0.0635 0.762,0.49741 v 3.91584 c 0,0.43391 -0.05292,0.49741 -0.762,0.49741 v 0.26459 h 2.973917 c 1.49225,0 2.614083,-1.22767 2.614083,-2.67759 z m -0.878417,0 c 0,0.86784 -0.15875,1.31234 -0.381,1.651 -0.169333,0.23284 -0.624416,0.762 -1.598083,0.762 h -0.814917 c -0.370416,0 -0.423333,-0.0317 -0.423333,-0.45508 v -4.0005 c 0,-0.42333 0.05292,-0.45508 0.423333,-0.45508 h 0.814917 c 0.910167,0 1.36525,0.49741 1.513417,0.68791 0.232833,0.29634 0.465666,0.74084 0.465666,1.80975 z"
         style="font-style:normal;font-variant:normal;font-weight:normal;font-stretch:normal;font-size:10.58333302px;font-family:'Latin Modern Roman Caps';-inkscape-font-specification:'Latin Modern Roman Caps';font-variant-ligatures:normal;font-variant-caps:normal;font-variant-numeric:normal;font-feature-settings:normal;text-align:start;writing-mode:lr-tb;text-anchor:start;fill:#800000;stroke-width:0.26458332"
         id="path35" />
      <path
         d="m 76.960388,293.39664 v -0.26459 c -0.751416,0 -0.804333,-0.0529 -0.804333,-0.508 v -3.89466 c 0,-0.45509 0.05292,-0.508 0.804333,-0.508 v -0.26459 l -1.185333,0.0317 -1.185333,-0.0317 v 0.26459 c 0.751416,0 0.804333,0.0529 0.804333,0.508 v 3.89466 c 0,0.45509 -0.05292,0.508 -0.804333,0.508 v 0.26459 l 1.185333,-0.0317 z"
         style="font-style:normal;font-variant:normal;font-weight:normal;font-stretch:normal;font-size:10.58333302px;font-family:'Latin Modern Roman Caps';-inkscape-font-specification:'Latin Modern Roman Caps';font-variant-ligatures:normal;font-variant-caps:normal;font-variant-numeric:normal;font-feature-settings:normal;text-align:start;writing-mode:lr-tb;text-anchor:start;fill:#800000;stroke-width:0.26458332"
         id="path37" />
      <path
         d="m 82.971699,291.34347 h -0.264583 c -0.179917,1.28058 -0.433917,1.78858 -1.788584,1.78858 h -1.143 c -0.370416,0 -0.423333,-0.0317 -0.423333,-0.45508 v -1.95792 h 0.740833 c 0.783167,0 0.910167,0.21167 0.910167,0.92075 h 0.264583 v -2.10608 h -0.264583 c 0,0.70908 -0.127,0.92075 -0.910167,0.92075 h -0.740833 v -1.74625 c 0,-0.42333 0.05292,-0.45508 0.423333,-0.45508 h 1.0795 c 1.227667,0 1.502834,0.37041 1.61925,1.524 h 0.264584 l -0.201084,-1.78859 h -4.709583 v 0.26459 c 0.709083,0 0.762,0.0635 0.762,0.49741 v 3.88409 c 0,0.43391 -0.05292,0.49741 -0.762,0.49741 v 0.26459 h 4.836583 z"
         style="font-style:normal;font-variant:normal;font-weight:normal;font-stretch:normal;font-size:10.58333302px;font-family:'Latin Modern Roman Caps';-inkscape-font-specification:'Latin Modern Roman Caps';font-variant-ligatures:normal;font-variant-caps:normal;font-variant-numeric:normal;font-feature-settings:normal;text-align:start;writing-mode:lr-tb;text-anchor:start;fill:#800000;stroke-width:0.26458332"
         id="path39" />
      <path
         d="m 87.586019,291.8938 c 0,-0.66675 -0.41275,-1.10066 -0.41275,-1.10066 -0.391583,-0.40217 -0.560916,-0.43392 -1.4605,-0.64559 -0.22225,-0.0529 -0.592666,-0.13758 -0.656166,-0.15875 -0.529167,-0.21166 -0.6985,-0.62441 -0.6985,-0.94191 0,-0.48684 0.423333,-1.00542 1.132416,-1.00542 1.344084,0 1.534584,1.23825 1.576917,1.57692 0.02117,0.0741 0.02117,0.13758 0.137583,0.13758 0.137584,0 0.137584,-0.0529 0.137584,-0.254 v -1.43933 c 0,-0.16934 0,-0.254 -0.105834,-0.254 -0.0635,0 -0.07408,0.0106 -0.232833,0.24341 -0.05292,0.0529 -0.15875,0.21167 -0.201083,0.27517 -0.402167,-0.39158 -0.889,-0.51858 -1.322917,-0.51858 -0.963083,0 -1.661583,0.71966 -1.661583,1.54516 0,0.59267 0.338667,0.94192 0.465667,1.06892 0.3175,0.3175 0.529166,0.35983 1.502833,0.58208 0.5715,0.13759 0.677333,0.15875 0.92075,0.381 0.05292,0.0423 0.338666,0.32809 0.338666,0.79375 0,0.52917 -0.41275,1.10067 -1.143,1.10067 -0.275166,0 -0.846666,-0.0423 -1.301749,-0.41275 -0.47625,-0.37042 -0.508,-0.889 -0.518584,-1.17475 -0.01058,-0.0847 -0.09525,-0.0953 -0.127,-0.0953 -0.137583,0 -0.137583,0.0741 -0.137583,0.26458 v 1.42875 c 0,0.16934 0,0.254 0.105833,0.254 0.0635,0 0.07408,-0.0106 0.232834,-0.24341 0.05292,-0.0529 0.15875,-0.21167 0.201083,-0.27517 0.306917,0.27517 0.85725,0.51858 1.545166,0.51858 1.026584,0 1.68275,-0.81491 1.68275,-1.651 z"
         style="font-style:normal;font-variant:normal;font-weight:normal;font-stretch:normal;font-size:10.58333302px;font-family:'Latin Modern Roman Caps';-inkscape-font-specification:'Latin Modern Roman Caps';font-variant-ligatures:normal;font-variant-caps:normal;font-variant-numeric:normal;font-feature-settings:normal;text-align:start;writing-mode:lr-tb;text-anchor:start;fill:#800000;stroke-width:0.26458332"
         id="path41" />
    </g>
    <path
       style="fill:none;stroke:#000000;stroke-width:0.28525296px;stroke-linecap:butt;stroke-linejoin:miter;stroke-opacity:1"
       d="M 1.2288952,295.88476 H 87.339336"
       id="path63-3-6-9"
       inkscape:connector-curvature="0"
       inkscape:export-xdpi="96"
       inkscape:export-ydpi="96" />
  </g>
</svg>
